# This file uses centimeters as units for non-parametric coordinates.

mtllib chairFrame.mtl
g default
v -0.715523 -1.105556 -0.812800
v -0.611313 -1.105556 -0.812800
v 0.743418 -1.105556 -0.812800
v 0.847627 -1.105556 -0.812800
v -0.715523 -1.001231 -0.812800
v -0.611313 -1.001231 -0.812800
v 0.743418 -1.001231 -0.812800
v 0.847627 -1.001231 -0.812800
v -0.715523 1.001231 -0.812800
v -0.611313 1.001231 -0.812800
v 0.743418 1.001231 -0.812800
v 0.847627 1.001231 -0.812800
v -0.715523 1.105556 -0.812800
v -0.611313 1.105556 -0.812800
v 0.743418 1.105556 -0.812800
v 0.847627 1.105556 -0.812800
v -0.715523 1.105556 -0.976484
v -0.611313 1.105556 -0.976484
v 0.743418 1.105556 -0.976484
v 0.847627 1.105556 -0.976484
v -0.715523 1.001231 -0.976484
v -0.611313 1.001231 -0.976484
v 0.743418 1.001231 -0.976484
v 0.847627 1.001231 -0.976484
v -0.715523 -1.001231 -0.976484
v -0.611313 -1.001231 -0.976484
v 0.743418 -1.001231 -0.976484
v 0.847627 -1.001231 -0.976484
v -0.715523 -1.105556 -0.976484
v -0.611313 -1.105556 -0.976484
v 0.743418 -1.105556 -0.976484
v 0.847627 -1.105556 -0.976484
vt 0.173014 0.086199
vt 0.208834 0.086199
vt 0.208834 0.122059
vt 0.173014 0.122059
vt 0.674501 0.086199
vt 0.674501 0.122059
vt 0.710321 0.086199
vt 0.710321 0.122059
vt 0.208834 0.810372
vt 0.173014 0.810372
vt 0.710321 0.810372
vt 0.674501 0.810372
vt 0.208834 0.846233
vt 0.173014 0.846233
vt 0.674501 0.846233
vt 0.710321 0.846233
vt 0.173014 0.846233
vt 0.208834 0.846233
vt 0.208834 0.810372
vt 0.173014 0.810372
vt 0.674501 0.846233
vt 0.674501 0.810372
vt 0.710321 0.846233
vt 0.710321 0.810372
vt 0.208834 0.122059
vt 0.173014 0.122059
vt 0.710321 0.122059
vt 0.674501 0.122059
vt 0.208834 0.086199
vt 0.173014 0.086199
vt 0.674501 0.086199
vt 0.710321 0.086199
vt 0.166465 0.881251
vt 0.166465 0.960838
vt 0.115797 0.960838
vt 0.115797 0.881251
vt 0.745633 0.122059
vt 0.745633 0.086199
vt 0.801896 0.086199
vt 0.801896 0.122059
vt 0.745633 0.810372
vt 0.801896 0.810372
vt 0.801896 0.846233
vt 0.745633 0.846233
vt 0.825162 0.881251
vt 0.825162 0.960838
vt 0.875831 0.960838
vt 0.875831 0.881251
vt 0.801896 0.122059
vt 0.801896 0.086199
vt 0.745633 0.086199
vt 0.745633 0.122059
vt 0.166465 0.960838
vt 0.166465 0.881252
vt 0.115797 0.881252
vt 0.115797 0.960838
vt 0.801896 0.810372
vt 0.745633 0.810372
vt 0.745633 0.846233
vt 0.801896 0.846233
vt 0.825162 0.960838
vt 0.825162 0.881252
vt 0.875831 0.881252
vt 0.875831 0.960838
vt 0.166465 0.960838
vt 0.825162 0.960838
vt 0.825162 0.881251
vt 0.166465 0.881251
vt 0.825162 0.960838
vt 0.166465 0.960838
vt 0.166465 0.881252
vt 0.825162 0.881252
vt 0.801896 0.810372
vt 0.801896 0.122059
vt 0.745633 0.122059
vt 0.745633 0.810372
vt 0.801896 0.122059
vt 0.801896 0.810372
vt 0.745633 0.810372
vt 0.745633 0.122059
vn 0.000000 0.000000 1.000000
vn 0.000000 0.000000 1.000000
vn 0.611998 0.414037 0.673819
vn 0.000000 0.000000 1.000000
vn 0.000000 0.000000 1.000000
vn -0.611998 0.414037 0.673820
vn 0.000000 0.000000 1.000000
vn 0.000000 0.000000 1.000000
vn 0.611998 -0.414037 0.673819
vn 0.000000 0.000000 1.000000
vn 0.000000 0.000000 1.000000
vn -0.611997 -0.414037 0.673820
vn 0.000000 0.000000 1.000000
vn 0.000000 0.000000 1.000000
vn 0.000000 0.000000 1.000000
vn 0.000000 0.000000 1.000000
vn 0.000000 1.000000 0.000000
vn 0.000000 1.000000 0.000000
vn 0.000000 1.000000 0.000000
vn 0.000000 1.000000 0.000000
vn 0.000000 1.000000 0.000000
vn 0.000000 1.000000 0.000000
vn 0.000000 1.000000 0.000000
vn 0.000000 1.000000 0.000000
vn 0.000000 0.000000 -1.000000
vn 0.000000 0.000000 -1.000000
vn 0.611998 -0.414037 -0.673819
vn 0.000000 0.000000 -1.000000
vn 0.000000 0.000000 -1.000000
vn -0.611998 -0.414037 -0.673819
vn 0.000000 0.000000 -1.000000
vn 0.000000 0.000000 -1.000000
vn 0.611998 0.414037 -0.673819
vn 0.000000 0.000000 -1.000000
vn 0.000000 0.000000 -1.000000
vn -0.611998 0.414037 -0.673820
vn 0.000000 0.000000 -1.000000
vn 0.000000 0.000000 -1.000000
vn 0.000000 0.000000 -1.000000
vn 0.000000 0.000000 -1.000000
vn 0.000000 -1.000000 0.000000
vn 0.000000 -1.000000 0.000000
vn 0.000000 -1.000000 0.000000
vn 0.000000 -1.000000 0.000000
vn 0.000000 -1.000000 0.000000
vn 0.000000 -1.000000 0.000000
vn 0.000000 -1.000000 0.000000
vn 0.000000 -1.000000 0.000000
vn 1.000000 0.000000 0.000000
vn 1.000000 0.000000 0.000000
vn 1.000000 0.000000 0.000000
vn 1.000000 0.000000 0.000000
vn 1.000000 0.000000 0.000000
vn 1.000000 0.000000 0.000000
vn 1.000000 0.000000 0.000000
vn 1.000000 0.000000 0.000000
vn -1.000000 0.000000 0.000000
vn -1.000000 0.000000 0.000000
vn -1.000000 0.000000 0.000000
vn -1.000000 0.000000 0.000000
vn -1.000000 0.000000 0.000000
vn -1.000000 0.000000 0.000000
vn -1.000000 0.000000 0.000000
vn -1.000000 0.000000 0.000000
s 1
g pCube1
usemtl phong5SG
f 1/1/1 2/2/2 6/3/3 5/4/4
f 2/2/2 3/5/5 7/6/6 6/3/3
f 3/5/5 4/7/7 8/8/8 7/6/6
f 5/4/4 6/3/3 10/9/9 9/10/10
f 7/6/6 8/8/8 12/11/11 11/12/12
f 9/10/10 10/9/9 14/13/13 13/14/14
f 10/9/9 11/12/12 15/15/15 14/13/13
f 11/12/12 12/11/11 16/16/16 15/15/15
s 2
f 14/33/17 18/34/18 17/35/19 13/36/20
f 15/45/21 19/46/22 18/34/18 14/33/17
f 20/47/23 19/46/22 15/45/21 16/48/24
s 1
f 17/17/25 18/18/26 22/19/27 21/20/28
f 18/18/26 19/21/29 23/22/30 22/19/27
f 19/21/29 20/23/31 24/24/32 23/22/30
f 21/20/28 22/19/27 26/25/33 25/26/34
f 23/22/30 24/24/32 28/27/35 27/28/36
f 25/26/34 26/25/33 30/29/37 29/30/38
f 26/25/33 27/28/36 31/31/39 30/29/37
f 27/28/36 28/27/35 32/32/40 31/31/39
s 4
f 30/53/41 2/54/42 1/55/43 29/56/44
f 31/61/45 3/62/46 2/54/42 30/53/41
f 4/63/47 3/62/46 31/61/45 32/64/48
s 5
f 8/37/49 4/38/50 32/39/51 28/40/52
f 12/41/53 8/37/49 28/40/52 24/42/54
f 20/43/55 16/44/56 12/41/53 24/42/54
s 6
f 25/49/57 29/50/58 1/51/59 5/52/60
f 21/57/61 25/49/57 5/52/60 9/58/62
f 13/59/63 17/60/64 21/57/61 9/58/62
s 1
f 22/65/27 23/66/30 11/67/12 10/68/9
f 23/73/30 27/74/36 7/75/6 11/76/12
f 27/69/36 26/70/33 6/71/3 7/72/6
f 26/77/33 22/78/27 10/79/9 6/80/3
