# This file uses centimeters as units for non-parametric coordinates.

mtllib chairDrawing.mtl
g default
v 0.777120 -1.032856 -0.889916
v -0.649262 -1.032856 -0.889916
v 0.777120 1.032856 -0.889916
v -0.649262 1.032856 -0.889916
vt 0.000000 0.000000
vt 1.000000 0.000000
vt 0.000000 1.000000
vt 1.000000 1.000000
vn -0.000000 -0.000000 -1.000000
vn -0.000000 -0.000000 -1.000000
vn -0.000000 -0.000000 -1.000000
vn -0.000000 -0.000000 -1.000000
s off
g ChairDrawing
usemtl phong4SG
f 1/1/1 2/2/2 4/4/3 3/3/4
