# This file uses centimeters as units for non-parametric coordinates.

mtllib chairDrawing.mtl
g default
v 0.848988 -1.124693 -0.431217
v -0.721130 -1.124693 -0.431217
v 0.848988 1.124693 -0.431217
v -0.721130 1.124693 -0.431217
vt 0.000000 0.000000
vt 1.000000 0.000000
vt 0.000000 1.000000
vt 1.000000 1.000000
vn -0.000000 -0.000000 -1.000000
vn -0.000000 -0.000000 -1.000000
vn -0.000000 -0.000000 -1.000000
vn -0.000000 -0.000000 -1.000000
s off
g ChairDrawing
usemtl phong4SG
f 1/1/1 2/2/2 4/4/3 3/3/4
